<svg width="17" height="19" viewBox="0 0 17 19" fill="none" xmlns="http://www.w3.org/2000/svg">
<path d="M13.8438 13.5951C13.1471 13.5951 12.5238 13.8701 12.0471 14.301L5.51125 10.4968C5.55708 10.286 5.59375 10.0751 5.59375 9.85514C5.59375 9.63514 5.55708 9.42431 5.51125 9.21348L11.9738 5.44598C12.4688 5.90431 13.1196 6.18848 13.8438 6.18848C15.3654 6.18848 16.5938 4.96014 16.5938 3.43848C16.5938 1.91681 15.3654 0.688477 13.8438 0.688477C12.3221 0.688477 11.0938 1.91681 11.0938 3.43848C11.0938 3.65848 11.1304 3.86931 11.1763 4.08014L4.71375 7.84764C4.21875 7.38931 3.56792 7.10514 2.84375 7.10514C1.32208 7.10514 0.09375 8.33348 0.09375 9.85514C0.09375 11.3768 1.32208 12.6051 2.84375 12.6051C3.56792 12.6051 4.21875 12.321 4.71375 11.8626L11.2404 15.676C11.1946 15.8685 11.1671 16.0701 11.1671 16.2718C11.1671 17.7476 12.3679 18.9485 13.8438 18.9485C15.3196 18.9485 16.5204 17.7476 16.5204 16.2718C16.5204 14.796 15.3196 13.5951 13.8438 13.5951Z" fill="#202020"/>
</svg>
